<svg 
  version="1.0" 
  id="uncoma_logo" 
  xmlns="http://www.w3.org/2000/svg" 
  viewBox="0 0 195 195" 
  preserveAspectRatio="xMidYMid meet">
  <path
     id="path2245"
     d="m 91.737927,168.79867 c -3.194809,-0.66819 -6.967266,-2.3724 -8.599275,-3.88473 -2.84573,-2.63705 -3.543236,-7.33622 -1.594827,-10.74449 0.599433,-1.04857 1.08988,-2.08349 1.08988,-2.29984 0,-0.21634 -0.93944,-0.39335 -2.087648,-0.39335 -2.084226,0 -2.096242,0.009 -7.330714,5.25676 -2.883687,2.89122 -5.513013,5.25676 -5.842945,5.25676 -0.978669,0 -6.641859,-3.13189 -6.641859,-3.67311 0,-0.27399 3.30853,-3.80239 7.352284,-7.84089 l 7.352284,-7.34275 8.30848,0.11953 8.30848,0.11953 0.12939,3.47545 0.129391,3.47544 -1.791644,1.56229 c -3.067354,2.67468 -2.838479,5.85457 0.57102,7.93347 1.198051,0.7305 2.221064,0.85358 7.094729,0.85358 6.141447,0 7.845347,-0.50442 9.001547,-2.66482 0.8877,-1.65867 0.2262,-4.26961 -1.54001,-6.07836 -1.58457,-1.62275 -1.58688,-1.63082 -1.45787,-5.09119 l 0.12922,-3.46586 8.09843,0.10848 8.09844,0.10848 7.3433,7.33376 c 4.03881,4.03357 7.34329,7.47414 7.34329,7.64571 0,0.41248 -5.39615,3.42126 -6.13592,3.42126 -0.31676,0 -2.9687,-2.36554 -5.89319,-5.25676 l -5.31727,-5.25676 h -2.27839 c -1.69172,0 -2.27839,0.16254 -2.27839,0.63124 0,0.34719 0.19994,0.75482 0.44432,0.90585 1.00483,0.62102 2.18406,3.77583 2.18406,5.84303 0,2.9313 -2.00602,5.9602 -5.03773,7.60652 -4.43174,2.40657 -13.515209,3.51445 -19.150863,2.33577 z m 39.529073,-21.9138 -8.52554,-8.53396 -9.43085,-0.11779 -9.43083,-0.11779 v -17.96059 -17.9606 h 17.74156 17.74157 l 0.11768,9.66843 0.11769,9.66843 8.31503,8.58209 c 4.57327,4.72014 8.31491,8.74731 8.31476,8.94926 -4.4e-4,0.86451 -4.01459,5.4049 -4.77821,5.4049 -0.49537,0 -4.67481,-3.93656 -10.49666,-9.88667 l -9.67356,-9.88668 -0.11996,-7.30731 -0.11998,-7.30731 h -9.41836 -9.41836 v 10.07546 10.07545 l 6.78998,0.11868 6.78998,0.11868 9.96594,9.9532 c 5.48127,5.47427 9.96594,10.15195 9.96593,10.39485 -2e-5,0.58838 -4.95827,4.59077 -5.69902,4.60035 -0.12279,0.002 -4.05974,-3.8374 -8.74879,-8.53108 z m -78.969181,5.67987 c -1.385375,-1.08758 -2.518864,-2.22259 -2.518864,-2.52224 0,-0.29965 4.386109,-4.92543 9.746909,-10.2795 l 9.746909,-9.73468 7.447077,-0.11809 7.447077,-0.1181 v -9.63739 -9.6374 h -9.856425 -9.856425 l -0.118904,6.57095 -0.118903,6.57095 -9.952983,9.96594 c -5.47414,5.48127 -10.257012,9.96594 -10.628612,9.96594 -0.730672,0 -5.245366,-4.35137 -5.245366,-5.05561 0,-0.23561 3.938776,-4.36347 8.752838,-9.17302 l 8.752834,-8.74463 0.117948,-9.21186 0.117945,-9.21186 h 17.741564 17.741565 v 17.74156 17.74157 l -9.430951,0.11779 -9.430947,0.11779 -8.306294,8.31493 c -4.568458,4.57321 -8.603928,8.3148 -8.967709,8.31465 -0.363781,-1.5e-4 -1.794907,-0.89011 -3.180283,-1.97769 z m 99.644411,-26.18247 -7.12356,-7.13339 0.11953,-8.30834 0.11953,-8.30834 3.43031,-0.12858 c 3.38653,-0.12694 3.45225,-0.10876 5.14851,1.42371 1.40773,1.2718 2.05935,1.55228 3.60626,1.55228 1.53433,0 2.12912,-0.25136 3.17469,-1.34164 3.7398,-4.302241 3.20846,-11.561406 0.0488,-15.535096 -2.20073,-2.200725 -4.12628,-2.128204 -6.54899,0.246656 l -1.80422,1.768571 -3.52766,-0.125833 -3.52766,-0.125838 -0.11976,-8.089076 -0.11976,-8.089076 7.12379,-7.133625 c 3.91809,-3.923492 7.36846,-7.133625 7.6675,-7.133625 0.58794,0 3.03341,3.957924 3.4707,5.617238 0.22675,0.860431 -0.55222,1.847401 -5.0441,6.390985 l -5.31226,5.373407 v 2.234916 c 0,2.187772 0.51561,3.224348 1.11857,2.248746 0.5363,-0.86776 4.747,-2.582116 6.3285,-2.576606 3.60092,0.01253 7.09556,2.862692 8.67015,7.071166 2.14322,5.728269 2.26734,13.062378 0.31853,18.82256 -1.43311,4.23591 -2.87752,6.25257 -5.59425,7.8106 -2.99963,1.72027 -5.01948,1.72949 -8.01912,0.0366 -1.25741,-0.70963 -2.40683,-1.1696 -2.55429,-1.02215 -0.14745,0.14745 -0.26809,1.17469 -0.26809,2.28274 0,1.99093 0.0618,2.07632 5.25676,7.2577 2.89122,2.88369 5.25676,5.52289 5.25676,5.86491 0,0.99315 -3.05558,6.18183 -3.64044,6.18183 -0.29212,0 -3.73672,-3.21003 -7.65469,-7.13339 z m -118.136877,4.53602 c -0.601812,-1.18763 -1.295082,-2.28347 -1.540599,-2.4352 -1.065374,-0.65844 -0.126815,-2.0051 5.029396,-7.21626 l 5.475792,-5.53414 v -2.25327 c 0,-2.43637 -0.450022,-3.12721 -1.339195,-2.05582 -1.601923,1.9302 -7.273704,2.73436 -9.83142,1.39392 -2.971121,-1.55709 -4.685403,-4.19166 -5.882752,-9.04082 -1.590411,-6.441033 -1.050467,-12.346166 1.717133,-18.779635 1.927974,-4.48169 6.344568,-6.951307 10.462061,-5.850046 1.105992,0.295811 2.630803,1.01066 3.388468,1.588562 0.757666,0.577897 1.500468,0.927831 1.650671,0.777628 0.150203,-0.150203 0.273097,-1.29198 0.273097,-2.53728 v -2.264183 l -5.25676,-5.145921 c -2.891218,-2.830253 -5.25676,-5.447081 -5.25676,-5.815173 0,-1.251442 2.72772,-5.829624 3.473339,-5.829624 0.397591,0 3.923115,3.221553 7.834495,7.159006 l 7.111604,7.159006 -0.119903,7.844663 -0.119906,7.844663 -3.595129,0.126929 c -3.512668,0.124016 -3.622052,0.09671 -4.768876,-1.190406 -1.56124,-1.752227 -3.758031,-2.478554 -5.417481,-1.791189 -1.947126,0.806527 -2.984144,2.20971 -3.719455,5.032756 -1.309499,5.0275 -0.697248,9.917484 1.519229,12.133964 1.010945,1.01094 1.620896,1.23919 3.31147,1.23919 1.85961,0 2.240037,-0.18172 3.70705,-1.77077 l 1.634773,-1.77079 3.664212,0.12805 3.664207,0.12804 0.11967,8.06478 0.11967,8.06478 -7.330885,7.37695 c -4.031983,4.05733 -7.680109,7.37695 -8.106944,7.37695 -0.48976,0 -1.179736,-0.79661 -1.870272,-2.15931 z M 56.646903,90.298376 C 56.483554,90.135027 56.349905,85.941819 56.349905,80.980134 V 71.95889 l -8.132207,-8.099734 c -4.472719,-4.45485 -8.323081,-8.443622 -8.556363,-8.863935 -0.334597,-0.602854 0.01814,-1.318886 1.670778,-3.391403 1.152207,-1.444961 2.392299,-2.628814 2.755756,-2.630785 0.363452,-0.0022 4.995972,4.334242 10.294484,9.63603 l 9.633661,9.639619 0.219031,7.116304 0.219032,7.116304 h 9.637393 9.637393 V 72.843896 63.206503 L 76.71985,63.088011 69.710837,62.96952 59.963928,53.23524 c -5.3608,-5.353857 -9.737583,-10.03162 -9.726185,-10.395033 0.02414,-0.76916 4.38572,-4.384282 5.289571,-4.384282 0.336713,0 4.350039,3.741718 8.918497,8.314928 l 8.306294,8.314933 9.430947,0.117786 9.430951,0.117791 V 72.843896 90.36643 l -17.335051,0.114474 c -9.534273,0.06296 -17.468695,-0.01919 -17.632049,-0.182528 z m 47.215767,-0.256617 c -0.11683,-0.304454 -0.16077,-8.241093 -0.0976,-17.636973 l 0.11476,-17.083423 9.43095,-0.117791 9.43095,-0.117786 8.30629,-8.314933 c 5.27775,-5.283236 8.62731,-8.314827 9.18674,-8.314652 1.03944,3.24e-4 5.91818,3.70991 5.91818,4.499931 0,0.299653 -4.38611,4.925426 -9.74691,10.279502 l -9.74691,9.734674 -7.44708,0.118098 -7.44707,0.118097 v 9.637393 9.637394 h 9.85642 9.85643 l 0.21903,-6.897233 0.21903,-6.897233 9.41836,-9.448421 c 5.1801,-5.196627 9.79334,-9.656033 10.25165,-9.909786 0.70001,-0.387572 1.06386,-0.190456 2.27497,1.23247 0.79293,0.931607 1.79429,2.336165 2.22525,3.121236 l 0.78357,1.427403 -8.4173,8.429022 -8.4173,8.429022 -0.11703,9.19933 -0.11703,9.19933 -17.86294,0.114439 c -14.07335,0.09016 -17.908,-0.0031 -18.07536,-0.43911 z M 67.786192,42.666958 c -4.497202,-4.505114 -7.093502,-7.423115 -6.946225,-7.806911 0.292521,-0.762292 5.193981,-3.413131 6.310955,-3.413131 0.46503,0 3.003305,2.187557 5.84539,5.037724 l 5.023438,5.037728 h 2.233966 c 1.228684,0 2.361844,-0.127875 2.518137,-0.284167 0.156292,-0.156292 -0.402239,-1.04394 -1.241178,-1.972547 -1.374034,-1.52089 -1.52535,-1.941575 -1.52535,-4.240676 0,-2.242354 0.19949,-2.835724 1.642738,-4.886246 2.182865,-3.10134 5.136643,-4.640256 10.643848,-5.545439 7.297635,-1.199462 14.483109,-0.06158 19.101379,3.024866 4.42013,2.954023 5.38994,8.35686 2.25084,12.539581 -1.18214,1.575148 -0.98994,1.802692 1.52262,1.802692 h 2.30668 l 5.24307,-5.25676 c 2.88369,-2.891214 5.49818,-5.256756 5.80998,-5.256756 0.8461,0 5.54733,2.454767 6.19439,3.234414 0.48299,0.581967 -0.47836,1.697417 -6.8162,7.908778 l -7.37849,7.231247 -8.3232,-0.09741 -8.3232,-0.09741 -0.12884,-3.444448 -0.12883,-3.444449 1.77157,-1.635505 c 1.53173,-1.414081 1.77157,-1.885744 1.77157,-3.483847 0,-2.611747 -0.61626,-3.476282 -3.33506,-4.678665 -1.97419,-0.873078 -3.10205,-1.054647 -6.551305,-1.054647 -4.793692,0 -7.157416,0.869963 -8.284233,3.048987 -1.162585,2.248189 -0.864242,3.826711 1.102452,5.833036 l 1.768571,1.804217 -0.125834,3.527658 -0.125838,3.527663 -8.323203,0.11723 -8.323203,0.11723 z"
     style="fill:#0566c8;" />
</svg>

